<svg xmlns="http://www.w3.org/2000/svg" viewBox="0 0 32 32" width="32" height="32">
  <!-- Background -->
  <rect width="32" height="32" fill="#1a1a1a"/>
  
  <!-- World map representation -->
  <circle cx="16" cy="16" r="14" fill="none" stroke="#0077cc" stroke-width="2"/>
  
  <!-- Continents -->
  <path d="M8 12 Q10 10 12 12 Q14 14 12 16 Q10 18 8 16 Z" fill="#33cc33"/>
  <path d="M20 8 Q22 6 24 8 Q26 10 24 12 Q22 14 20 12 Z" fill="#ff4444"/>
  <path d="M22 20 Q24 18 26 20 Q28 22 26 24 Q24 26 22 24 Z" fill="#ffcc00"/>
  <path d="M6 20 Q8 18 10 20 Q12 22 10 24 Q8 26 6 24 Z" fill="#9933cc"/>
  
  <!-- Center territory -->
  <circle cx="16" cy="16" r="3" fill="#ffffff"/>
  <circle cx="16" cy="16" r="1" fill="#0077cc"/>
</svg> 